<?xml version="1.0" encoding="UTF-8" standalone="no"?>
<svg width="30px"
    height="30px"
    viewBox="-2 -4 30 30"
    version="1.1"
    xmlns="http://www.w3.org/2000/svg">
  <g fill="#F00">
    <path d="M4.41724403,12.206401 L0.690785503,12.206401 C0.309399559,12.206401 0,11.9075806 0,11.5384374 L0,4.62296011 C0,4.25461466 0.309399559,3.95499648 0.690785503,3.95499648 L4.41586053,3.95499648 L10.7307156,0.102953523 C10.9433285,-0.0272846584 11.2121921,-0.0336767038 11.4330859,0.0821798871 C11.6539797,0.199633978 11.7904764,0.424159433 11.7904764,0.66705716 L11.7904764,15.4925117 C11.7904764,15.7362072 11.6539733,15.9591208 11.4330859,16.077389 C11.3288465,16.1325201 11.2146912,16.1604856 11.0996909,16.1604856 L11.0996909,16.1606738 C10.9714602,16.1606738 10.843238,16.1255165 10.7307156,16.0568035 L4.41724403,12.206401 Z"></path>
    <path d="M13.9779389,10.9343659 L13.9779389,9.59923636 C14.7605552,9.59923636 15.397568,8.98480227 15.397568,8.22974318 C15.397568,7.47388636 14.7605552,6.85785682 13.9779389,6.85785682 L13.9779389,5.52272727 C15.5233271,5.52272727 16.7798802,6.73721591 16.7798802,8.22886364 C16.7798802,9.72141136 15.5232212,10.9343864 13.9779389,10.9343864 L13.9779389,10.9343659 Z"></path>
  </g>
</svg>