<?xml version="1.0" encoding="UTF-8" standalone="no"?>
<svg width="23"
    height="23"
    viewBox="120 0 23 23"
    version="1.1"
    xmlns="http://www.w3.org/2000/svg">
  <g fill="#F00">
    <path d="M139.391885,7.94679459 L138.445828,7.55083177 C138.220534,7.46322214 138.040118,7.28714973 137.92747,7.06726811 L137.92747,7.0234633 C137.837704,6.78124171 137.837704,6.51755967 137.92747,6.29767805 L138.310291,5.37435116 C138.512705,5.0668687 138.445819,4.67090588 138.197644,4.42868429 L137.13894,3.39541659 C136.890755,3.153195 136.485946,3.10939458 136.192883,3.28547578 L135.223936,3.65909862 C134.705578,3.85664907 134.142342,3.61529381 133.939937,3.13173455 L133.534227,2.2298681 C133.466463,1.8777057 133.151406,1.63636364 132.790575,1.63636364 L131.281282,1.63636364 C130.92045,1.63636364 130.605398,1.87858523 130.537629,2.20840766 L130.131919,3.13173455 C129.906624,3.61529821 129.343388,3.83517982 128.84792,3.65909862 L127.901863,3.28547578 C127.6088,3.08792534 127.20309,3.13173015 126.932917,3.39541659 L125.874213,4.42868429 C125.626028,4.67090588 125.581149,5.06598917 125.761565,5.35201118 L126.144386,6.29767805 C126.346799,6.80358168 126.099503,7.35328573 125.604039,7.55082737 L124.679971,7.94679019 C124.31914,8.01292618 124.071856,8.32041304 124.071856,8.67257544 L124.071856,10.1456064 C124.071856,10.4977688 124.320041,10.8052512 124.657983,10.8713916 L125.604039,11.2673544 C126.099507,11.4872361 126.324802,12.0369401 126.144386,12.5205038 L125.761565,13.4438307 C125.559152,13.7513131 125.604035,14.1258155 125.874213,14.3894975 L126.932917,15.4227652 C127.181101,15.6649868 127.58591,15.7087872 127.878974,15.532706 L128.84792,15.1590832 C129.366278,14.9615328 129.929514,15.202888 130.131919,15.6864473 L130.537629,16.5883137 C130.605393,16.9404761 130.92045,17.1818182 131.281282,17.1818182 L132.790575,17.1818182 C133.151406,17.1818182 133.466458,16.9395966 133.534227,16.6097742 L133.939937,15.6864473 C134.165232,15.2028836 134.728468,14.983002 135.223936,15.1590832 L136.169993,15.532706 C136.463056,15.7302565 136.868766,15.6864517 137.13894,15.4227652 L138.197644,14.3894975 C138.445828,14.1472759 138.490707,13.7521926 138.310291,13.4661706 L137.92747,12.5205038 C137.725057,12.0146001 137.972354,11.4648961 138.467817,11.2673544 L139.391885,10.8713916 C139.752717,10.8052556 140,10.4977688 140,10.1456064 L140,8.67257544 C140,8.32127058 139.752694,8.01293058 139.391885,7.94679019 L139.391885,7.94679459 Z M131.920507,12.6758893 C130.137446,12.6758893 128.68871,11.2619599 128.68871,9.52173913 C128.68871,7.78151833 130.137446,6.36758893 131.920507,6.36758893 C133.703567,6.36758893 135.152304,7.78151833 135.152304,9.52173913 C135.152304,11.2619599 133.703567,12.6758893 131.920507,12.6758893 Z"></path>
  </g>
</svg>