<?xml version="1.0" encoding="UTF-8" standalone="no"?>
<!DOCTYPE svg PUBLIC "-//W3C//DTD SVG 1.1//EN" "http://www.w3.org/Graphics/SVG/1.1/DTD/svg11.dtd">
<svg width="100%" height="100%" viewBox="0 0 132 132" version="1.1" xmlns="http://www.w3.org/2000/svg" xmlns:xlink="http://www.w3.org/1999/xlink" xml:space="preserve" style="fill-rule:evenodd;clip-rule:evenodd;stroke-linejoin:round;stroke-miterlimit:1.41421;">
    <g fill="#f00">
        <path d="M27,0L27,19.1C31.6,15.9 36.7,13.4 42,11.6C48.3,9.6 54.8,8.5 61.5,8.5C95.4,8.5 123,36.1 123,70C123,103.9 95.4,131.5 61.5,131.5C27.6,131.5 0,103.9 0,70L9,70C9,98.9 32.6,122.5 61.5,122.5C90.4,122.5 114,98.9 114,70C114,41.1 90.4,17.5 61.5,17.4C55.8,17.4 50.2,18.3 44.9,20.1C40.6,21.6 36.4,23.6 32.6,26.1L48.7,30.6L46.3,39.3L18,31.4L18,0L27,0ZM73.7,95.5C78.1,95.5 81.6,94 84.2,91C86.8,88 88.1,83.6 88.1,77.9L88.1,67.9C88.1,62.2 86.8,57.8 84.2,54.8C81.6,51.8 78.1,50.3 73.7,50.3C69.3,50.3 65.7,51.8 63.2,54.8C60.6,57.8 59.3,62.2 59.3,67.9L59.3,78C59.3,83.7 60.6,88.1 63.2,91.1C65.8,94 69.3,95.5 73.7,95.5ZM50.1,94.9L42.7,94.9L42.7,57.9L33.8,57.9L33.8,52.5L50.1,50.9L50.1,94.9ZM66.6,66.8C66.6,63.2 67.2,60.5 68.4,58.8C69.6,57.1 71.4,56.2 73.7,56.2C76,56.2 77.8,57.1 79,58.8C80.2,60.5 80.8,63.2 80.8,66.8L80.8,79C80.8,82.6 80.2,85.3 79,87.1C77.8,88.8 76.1,89.7 73.7,89.7C71.4,89.7 69.6,88.8 68.4,87.1C67.2,85.4 66.6,82.7 66.6,79.1L66.6,66.8Z"/>
    </g>
</svg>
