<svg width="21px"
    height="18px"
    viewBox="0 0 21 18"
    version="1.1"
    xmlns="http://www.w3.org/2000/svg">
  <g fill="#FFFFFF">
    <path d="M14.2659992,10.4608146 C13.189563,11.4835419 11.8925481,11.9877055 10.3931113,11.9853124 C9.99349669,11.9853124 9.59388206,11.9909046 9.19509745,11.9821153 C9.0605424,11.9725283 8.93005031,12.0252621 8.84169435,12.1251376 C7.94358858,13.0575785 7.03575079,13.9828194 6.13353641,14.9128876 C5.94791626,15.1038492 5.7363496,15.2292989 5.45833335,15.2260876 C5.00117737,15.2212951 4.65343918,14.8729194 4.65101136,14.4007058 C4.64452681,13.6280762 4.64452681,12.8562239 4.65101136,12.0836149 C4.65101136,11.9365978 4.60805144,11.8878587 4.45809531,11.8503103 C2.24525367,11.2902035 0.896466303,9.86797849 0.239918221,7.7602194 C0.118332263,7.36869894 0.0810476247,6.95482167 0,6.55213304 L0,5.43351485 C0.0380959824,5.07715576 0.104564234,4.72480576 0.199400601,4.37883758 C0.748958952,2.43725122 1.91536969,1.03267849 3.85834966,0.302246672 L3.85834966,0.303046444 C4.41763999,0.0969055352 5.01098201,-0.00536719204 5.60756113,0.000216898866 C7.17196796,0.000216898866 8.73633329,0.00580917159 10.3007194,0.000216898866 C12.47787,-0.00937014659 14.110318,0.949430535 15.2314717,2.74317144 C16.7577805,5.18176235 16.3330369,8.49355781 14.2660926,10.4606714 L14.2659992,10.4608146 Z M12.8653352,5.18656917 L12.8653352,3.59095099 L3.73508085,3.59095099 L3.73508085,5.18656917 L12.8653352,5.18656917 Z M9.85650137,6.65913281 L3.73508085,6.65913281 L3.73508085,8.25475099 L9.85650137,8.25475099 L9.85650137,6.65913281 Z"/>
    <path d="M18.931833,6.98038636 C18.3547179,6.46902273 17.6430354,6.12943636 16.8794763,6 C16.8713712,6.05593091 16.8648866,6.08868886 16.8624546,6.11985136 C16.7789668,7.11222409 16.5309227,8.06462864 16.0421635,8.93787409 C14.7598401,11.2285786 12.8160712,12.478965 10.118496,12.5141468 C9.83479412,12.5173418 9.55109222,12.5109498 9.26577177,12.5141468 C9.03394631,12.5173418 8.93181197,12.6891293 9.04853397,12.8784832 C9.70510301,13.9347764 10.6226521,14.6554718 11.8758002,14.8720036 C12.4107709,14.9646893 12.9668241,14.9367239 13.5131453,14.9519052 L13.5139567,14.9511055 C13.6347313,14.9479105 13.7506378,14.998247 13.830071,15.0869359 C14.1948247,15.4712564 14.5676918,15.849195 14.9373011,16.2279109 C15.221003,16.5211473 15.5047049,16.8183727 15.7964995,17.1068227 C16.0964076,17.4040477 16.504945,17.426425 16.7999767,17.1763354 C16.9896495,17.0165343 17.0463898,16.8024059 17.0455806,16.5666873 C17.0455806,16.0808918 17.0528744,15.5950964 17.0415259,15.1093009 C17.0374733,14.9351182 17.0893498,14.8744009 17.2644286,14.8096827 C17.6859144,14.6546761 18.1252456,14.5028645 18.4916386,14.2559782 C20.9516113,12.5988327 21.1649272,8.93452364 18.9317791,6.98029636 L18.931833,6.98038636 Z"/>
  </g>
</svg>