<svg width="15px"
    height="16px"
    viewBox="0 0 15 16"
    version="1.1"
    xmlns="http://www.w3.org/2000/svg">
  <g fill="#FFFFFF">
    <path d="M166.166667,16.999919 L166.166667,15.3335853 L170.349503,15.3335853 L170.349503,11.1052632 L172,11.1052632 L172,17 L166.17049,17 L166.166667,16.999919 Z M170.348214,2.66501775 L166.166667,2.66501775 L166.166667,1 L172,1 L172,6.89473684 L170.3521,6.89473684 L170.3521,2.66509871 L170.348214,2.66501775 Z M158.646543,6.89473684 L157,6.89473684 L157,1 L162.833333,1 L162.833333,2.66633366 L158.650626,2.66633366 L158.650626,6.89465582 L158.646543,6.89473684 Z M158.649056,15.3349822 L162.833333,15.3349822 L162.833333,17 L157,17 L157,11.1052632 L158.648976,11.1052632 L158.649056,15.3349822 Z"></path>
  </g>
</svg>