<svg width="20px"
    height="17px"
    viewBox="0 0 20 17"
    version="1.1"
    xmlns="http://www.w3.org/2000/svg">
  <g fill="#FFFFFF">
    <path d="M4.41724403,12.206401 L0.690785503,12.206401 C0.309399559,12.206401 0,11.9075806 0,11.5384374 L0,4.62296011 C0,4.25461466 0.309399559,3.95499648 0.690785503,3.95499648 L4.41586053,3.95499648 L10.7307156,0.102953523 C10.9433285,-0.0272846584 11.2121921,-0.0336767038 11.4330859,0.0821798871 C11.6539797,0.199633978 11.7904764,0.424159433 11.7904764,0.66705716 L11.7904764,15.4925117 C11.7904764,15.7362072 11.6539733,15.9591208 11.4330859,16.077389 C11.3288465,16.1325201 11.2146912,16.1604856 11.0996909,16.1604856 L11.0996909,16.1606738 C10.9714602,16.1606738 10.843238,16.1255165 10.7307156,16.0568035 L4.41724403,12.206401 Z"></path>
    <path d="M14,10.4116386 L14,9.07650909 C14.7826163,9.07650909 15.4196291,8.462075 15.4196291,7.70701591 C15.4196291,6.95115909 14.7826163,6.33512955 14,6.33512955 L14,5 C15.5453882,5 16.8019414,6.21448864 16.8019414,7.70613636 C16.8019414,9.19868409 15.5452823,10.4116591 14,10.4116591 L14,10.4116386 Z"></path>
    <path d="M14,13.5113273 L14,12.1761977 C16.5232298,12.1761977 18.5773514,10.1938659 18.5773514,7.75760682 C18.5773514,5.31819773 16.5240134,3.33512955 14,3.33512955 L14,2 C17.2860864,2 19.9598966,4.58320455 19.9598966,7.75754545 C19.9598966,10.9296364 17.2860864,13.5112045 14,13.5112045 L14,13.5113273 Z"></path>
  </g>
</svg>