<svg width="20px"
    height="20px"
    viewBox="0 0 20 20"
    version="1.1"
    xmlns="http://www.w3.org/2000/svg">
  <g fill="#FF0000">
    <path d="M15.320029,6.31043 L14.373972,5.914468 C14.148676,5.826858 13.968261,5.650786 13.855614,5.430904 L13.855614,5.387099 C13.765848,5.144878 13.765848,4.881196 13.855614,4.661314 L14.238435,3.737987 C14.440847,3.430505 14.373963,3.034542 14.125787,2.79232 L13.067082,1.759052 C12.818898,1.516831 12.414089,1.47303 12.121026,1.649112 L11.15208,2.022734 C10.633722,2.220285 10.070485,1.97893 9.86808,1.49537 L9.46237,0.593504 C9.394607,0.241342 9.07955,0 8.718717,0 L7.209425,0 C6.848593,0 6.533542,0.242221 6.465773,0.572044 L6.060063,1.49537 C5.834767,1.978934 5.271532,2.198816 4.776063,2.022734 L3.830006,1.649112 C3.536944,1.451561 3.131234,1.495366 2.861059,1.759052 L1.802356,2.79232 C1.554171,3.034542 1.509292,3.429625 1.689708,3.715647 L2.07253,4.661314 C2.274942,5.167218 2.027646,5.716922 1.532183,5.914463 L0.608114,6.310426 C0.247282,6.376562 0,6.684049 0,7.036211 L0,8.509242 C0,8.861405 0.248183,9.168887 0.586125,9.235028 L1.532183,9.63099 C2.027651,9.850872 2.252944,10.400576 2.07253,10.88414 L1.689708,11.807467 C1.487295,12.114949 1.532178,12.489451 1.802356,12.753133 L2.861059,13.786401 C3.109245,14.028623 3.514054,14.072423 3.807117,13.896342 L4.776063,13.522719 C5.294421,13.325169 5.857657,13.566524 6.060063,14.050083 L6.465773,14.95195 C6.533536,15.304112 6.848593,15.545454 7.209425,15.545454 L8.718717,15.545454 C9.07955,15.545454 9.394601,15.303232 9.46237,14.97341 L9.86808,14.050083 C10.093376,13.56652 10.656611,13.346638 11.15208,13.522719 L12.098137,13.896342 C12.391199,14.093892 12.796909,14.050088 13.067082,13.786401 L14.125787,12.753133 C14.373972,12.510912 14.41885,12.115829 14.238435,11.829807 L13.855614,10.88414 C13.6532,10.378236 13.900497,9.828532 14.395961,9.63099 L15.320029,9.235028 C15.680859,9.168892 15.928144,8.861405 15.928144,8.509242 L15.928144,7.036211 C15.928144,6.684906 15.680837,6.376566 15.320029,6.310426 L15.320029,6.31043 Z M7.84865,11.039525 C6.065589,11.039525 4.616852,9.625596 4.616852,7.885375 C4.616852,6.145154 6.065589,4.731225 7.84865,4.731225 C9.63171,4.731225 11.080447,6.145154 11.080447,7.885375 C11.080447,9.625596 9.63171,11.039525 7.84865,11.039525 Z"></path>
  </g>
</svg>
