<?xml version="1.0" encoding="UTF-8" standalone="no"?>
<svg width="22px" height="23px" viewBox="0 0 22 23" version="1.1" xmlns="http://www.w3.org/2000/svg" xmlns:xlink="http://www.w3.org/1999/xlink">
    <!-- Generator: Sketch 44.1 (41455) - http://www.bohemiancoding.com/sketch -->
    <title>Group 10</title>
    <desc>Created with Sketch.</desc>
    <defs>
        <path d="M17.0351562,16.4667969 L1,0" id="path-1"></path>
    </defs>
    <g id="Video-Player" stroke="none" stroke-width="1" fill="none" fill-rule="evenodd">
        <g id="03-Video-settings" transform="translate(-677.000000, -677.000000)">
            <g id="Group-19" transform="translate(24.000000, 624.000000)">
                <g id="Group-11" transform="translate(654.872473, 55.000000)">
                    <g id="Group-10">
                        <g id="Group-6" transform="translate(0.000000, 0.818182)">
                            <path d="M4.41724403,12.206401 L0.690785503,12.206401 C0.309399559,12.206401 0,11.9075806 0,11.5384374 L0,4.62296011 C0,4.25461466 0.309399559,3.95499648 0.690785503,3.95499648 L4.41586053,3.95499648 L10.7307156,0.102953523 C10.9433285,-0.0272846584 11.2121921,-0.0336767038 11.4330859,0.0821798871 C11.6539797,0.199633978 11.7904764,0.424159433 11.7904764,0.66705716 L11.7904764,15.4925117 C11.7904764,15.7362072 11.6539733,15.9591208 11.4330859,16.077389 C11.3288465,16.1325201 11.2146912,16.1604856 11.0996909,16.1604856 L11.0996909,16.1606738 C10.9714602,16.1606738 10.843238,16.1255165 10.7307156,16.0568035 L4.41724403,12.206401 Z" id="Combined-Shape" fill="#FFFFFF"></path>
                            <path d="M13.9779389,10.9343659 L13.9779389,9.59923636 C14.7605552,9.59923636 15.397568,8.98480227 15.397568,8.22974318 C15.397568,7.47388636 14.7605552,6.85785682 13.9779389,6.85785682 L13.9779389,5.52272727 C15.5233271,5.52272727 16.7798802,6.73721591 16.7798802,8.22886364 C16.7798802,9.72141136 15.5232212,10.9343864 13.9779389,10.9343864 L13.9779389,10.9343659 Z" id="Fill-3" fill="#FFFFFF"></path>
                            <path d="M13.9779389,13.9658727 L13.9779389,12.6307432 C16.5011686,12.6307432 18.5552903,10.6484114 18.5552903,8.21215227 C18.5552903,5.77274318 16.5019522,3.789675 13.9779389,3.789675 L13.9779389,2.45454545 C17.2640252,2.45454545 19.9378355,5.03775 19.9378355,8.21209091 C19.9378355,11.3841818 17.2640252,13.96575 13.9779389,13.96575 L13.9779389,13.9658727 Z" id="Fill-4" fill="#FFFFFF"></path>
                            <g id="Line" stroke-linecap="square">
                                <use stroke="#000000" stroke-width="4" xlink:href="#path-1"></use>
                                <use stroke="#FFFFFF" stroke-width="1" xlink:href="#path-1"></use>
                            </g>
                        </g>
                    </g>
                </g>
            </g>
        </g>
    </g>
</svg>