<?xml version="1.0" encoding="UTF-8" standalone="no"?>
<svg width="21px" height="18px" viewBox="0 0 21 18" version="1.1" xmlns="http://www.w3.org/2000/svg" xmlns:xlink="http://www.w3.org/1999/xlink">
    <!-- Generator: Sketch 44.1 (41455) - http://www.bohemiancoding.com/sketch -->
    <title>Page 1</title>
    <desc>Created with Sketch.</desc>
    <defs></defs>
    <g id="Video-Player" stroke="none" stroke-width="1" fill="none" fill-rule="evenodd">
        <g id="01_Embed" transform="translate(-638.000000, -682.000000)" fill="#FFFFFF">
            <g id="Video-Screen">
                <g id="Group-19" transform="translate(24.000000, 624.000000)">
                    <g id="Group-11" transform="translate(573.872473, 56.000000)">
                        <g id="Group-10" transform="translate(0.000000, 1.000000)">
                            <g id="Page-1" transform="translate(40.239521, 1.000000)">
                                <path d="M14.2659992,10.4608146 C13.189563,11.4835419 11.8925481,11.9877055 10.3931113,11.9853124 C9.99349669,11.9853124 9.59388206,11.9909046 9.19509745,11.9821153 C9.0605424,11.9725283 8.93005031,12.0252621 8.84169435,12.1251376 C7.94358858,13.0575785 7.03575079,13.9828194 6.13353641,14.9128876 C5.94791626,15.1038492 5.7363496,15.2292989 5.45833335,15.2260876 C5.00117737,15.2212951 4.65343918,14.8729194 4.65101136,14.4007058 C4.64452681,13.6280762 4.64452681,12.8562239 4.65101136,12.0836149 C4.65101136,11.9365978 4.60805144,11.8878587 4.45809531,11.8503103 C2.24525367,11.2902035 0.896466303,9.86797849 0.239918221,7.7602194 C0.118332263,7.36869894 0.0810476247,6.95482167 0,6.55213304 L0,5.43351485 C0.0380959824,5.07715576 0.104564234,4.72480576 0.199400601,4.37883758 C0.748958952,2.43725122 1.91536969,1.03267849 3.85834966,0.302246672 L3.85834966,0.303046444 C4.41763999,0.0969055352 5.01098201,-0.00536719204 5.60756113,0.000216898866 C7.17196796,0.000216898866 8.73633329,0.00580917159 10.3007194,0.000216898866 C12.47787,-0.00937014659 14.110318,0.949430535 15.2314717,2.74317144 C16.7577805,5.18176235 16.3330369,8.49355781 14.2660926,10.4606714 L14.2659992,10.4608146 Z M12.8653352,5.18656917 L12.8653352,3.59095099 L3.73508085,3.59095099 L3.73508085,5.18656917 L12.8653352,5.18656917 Z M9.85650137,6.65913281 L3.73508085,6.65913281 L3.73508085,8.25475099 L9.85650137,8.25475099 L9.85650137,6.65913281 Z" id="Combined-Shape"></path>
                                <path d="M19.2023774,7.54015909 C18.6252623,7.02879545 17.9135798,6.68920909 17.1500208,6.55977273 C17.1419156,6.61570364 17.135431,6.64846159 17.1329991,6.67962409 C17.0495112,7.67199682 16.8014671,8.62440136 16.312708,9.49764682 C15.0303845,11.7883514 13.0866156,13.0387377 10.3890404,13.0739195 C10.1053385,13.0771145 9.82163663,13.0707225 9.53631618,13.0739195 C9.30449072,13.0771145 9.20235638,13.248902 9.31907838,13.4382559 C9.97564742,14.4945491 10.8931965,15.2152445 12.1463446,15.4317764 C12.6813153,15.524462 13.2373685,15.4964966 13.7836897,15.511678 L13.7845011,15.5108782 C13.9052757,15.5076832 14.0211822,15.5580198 14.1006154,15.6467086 C14.4653691,16.0310291 14.8382362,16.4089677 15.2078455,16.7876836 C15.4915474,17.08092 15.7752493,17.3781454 16.0670439,17.6665954 C16.366952,17.9638204 16.7754894,17.9861977 17.0705211,17.7361081 C17.2601939,17.576307 17.3169343,17.3621786 17.316125,17.12646 C17.316125,16.6406645 17.3234188,16.1548691 17.3120703,15.6690736 C17.3080177,15.4948909 17.3598942,15.4341736 17.534973,15.3694555 C17.9564588,15.2144489 18.39579,15.0626373 18.762183,14.8157509 C21.2221557,13.1586055 21.4354716,9.49429636 19.2023235,7.54006909 L19.2023774,7.54015909 Z" id="Fill-2"></path>
                            </g>
                        </g>
                    </g>
                </g>
            </g>
        </g>
    </g>
</svg>