<?xml version="1.0" encoding="UTF-8" standalone="no"?>
<!DOCTYPE svg PUBLIC "-//W3C//DTD SVG 1.1//EN" "http://www.w3.org/Graphics/SVG/1.1/DTD/svg11.dtd">
<svg width="100%" height="100%" viewBox="0 0 123 132" version="1.1" xmlns="http://www.w3.org/2000/svg" xmlns:xlink="http://www.w3.org/1999/xlink" xml:space="preserve" style="fill-rule:evenodd;clip-rule:evenodd;stroke-linejoin:round;stroke-miterlimit:1.41421;">
    <g>
        <path d="M105,0L105,31.5L76.7,39.4L74.3,30.7L90.4,26.2C86.5,23.7 82.4,21.6 78.1,20.2C72.8,18.4 67.2,17.5 61.5,17.5C32.6,17.5 9,41.1 9,70C9,98.9 32.6,122.5 61.5,122.5C90.4,122.5 114,98.9 114,70L123,70C123,103.9 95.4,131.5 61.5,131.5C27.6,131.5 0,103.9 0,70C0,36.1 27.6,8.5 61.5,8.5C68.2,8.5 74.7,9.5 81,11.6C86.3,13.4 91.3,15.9 96,19.1L96,0L105,0ZM72.7,50.3C68.3,50.3 64.7,51.8 62.2,54.8C59.6,57.8 58.3,62.2 58.3,67.9L58.3,78C58.3,83.7 59.6,88.1 62.2,91.1C64.8,94.1 68.3,95.6 72.8,95.6C77.2,95.6 80.7,94.1 83.3,91.1C85.9,88.1 87.2,83.7 87.2,78L87.2,67.9C87.2,62.2 85.9,57.8 83.3,54.8C80.6,51.8 77.1,50.3 72.7,50.3ZM49.1,94.9L41.8,94.9L41.8,57.9L32.8,57.9L32.8,52.5L49.1,50.9L49.1,94.9ZM79.8,79C79.8,82.6 79.2,85.3 78,87.1C76.8,88.8 75.1,89.7 72.7,89.7C70.4,89.7 68.6,88.8 67.4,87.1C66.2,85.4 65.6,82.7 65.6,79.1L65.6,66.8C65.6,63.2 66.2,60.5 67.4,58.8C68.6,57.1 70.4,56.2 72.7,56.2C75,56.2 76.8,57.1 78,58.8C79.2,60.5 79.8,63.2 79.8,66.8L79.8,79Z"/>
    </g>
</svg>
