<?xml version="1.0" encoding="UTF-8" standalone="no"?>
<svg width="16px" height="16px" viewBox="0 0 16 16" version="1.1" xmlns="http://www.w3.org/2000/svg" xmlns:xlink="http://www.w3.org/1999/xlink">
    <!-- Generator: Sketch 44.1 (41455) - http://www.bohemiancoding.com/sketch -->
    <title>full_screen</title>
    <desc>Created with Sketch.</desc>
    <defs></defs>
    <g id="Video-Player" stroke="none" stroke-width="1" fill="none" fill-rule="evenodd">
        <g id="01-Roll-over-state-(Audio,-full-screen,-scrubber)" transform="translate(-794.000000, -680.000000)" fill="#FFFFFF">
            <g id="Group-19" transform="translate(24.000000, 624.000000)">
                <g id="Group-11" transform="translate(610.872473, 55.000000)">
                    <path d="M169.166667,16.999919 L169.166667,15.3335853 L173.349503,15.3335853 L173.349503,11.1052632 L175,11.1052632 L175,17 L169.17049,17 L169.166667,16.999919 Z M173.348214,2.66501775 L169.166667,2.66501775 L169.166667,1 L175,1 L175,6.89473684 L173.3521,6.89473684 L173.3521,2.66509871 L173.348214,2.66501775 Z M161.646543,6.89473684 L160,6.89473684 L160,1 L165.833333,1 L165.833333,2.66633366 L161.650626,2.66633366 L161.650626,6.89465582 L161.646543,6.89473684 Z M161.649056,15.3349822 L165.833333,15.3349822 L165.833333,17 L160,17 L160,11.1052632 L161.648976,11.1052632 L161.649056,15.3349822 Z" id="full_screen"></path>
                </g>
            </g>
        </g>
    </g>
</svg>