<?xml version="1.0" encoding="UTF-8" standalone="no"?>
<svg width="23px"
    height="23px"
    viewBox="160 0 23 23"
    version="1.1"
    xmlns="http://www.w3.org/2000/svg">
  <g fill="#FF0000">
    <path d="M169.166667,16.999919 L169.166667,15.3335853 L173.349503,15.3335853 L173.349503,11.1052632 L175,11.1052632 L175,17 L169.17049,17 L169.166667,16.999919 Z M173.348214,2.66501775 L169.166667,2.66501775 L169.166667,1 L175,1 L175,6.89473684 L173.3521,6.89473684 L173.3521,2.66509871 L173.348214,2.66501775 Z M161.646543,6.89473684 L160,6.89473684 L160,1 L165.833333,1 L165.833333,2.66633366 L161.650626,2.66633366 L161.650626,6.89465582 L161.646543,6.89473684 Z M161.649056,15.3349822 L165.833333,15.3349822 L165.833333,17 L160,17 L160,11.1052632 L161.648976,11.1052632 L161.649056,15.3349822 Z"></path>
  </g>
</svg>