<?xml version="1.0" encoding="UTF-8" standalone="no"?>
<svg width="15px" height="16px" viewBox="0 0 15 16" version="1.1" xmlns="http://www.w3.org/2000/svg" xmlns:xlink="http://www.w3.org/1999/xlink">
    <!-- Generator: Sketch 44.1 (41455) - http://www.bohemiancoding.com/sketch -->
    <title>Page 1</title>
    <desc>Created with Sketch.</desc>
    <defs></defs>
    <g id="Video-Player" stroke="none" stroke-width="1" fill="none" fill-rule="evenodd">
        <g id="01_Embed" transform="translate(-279.000000, -367.000000)" fill="#FFFFFF">
            <g id="Video-Screen">
                <g id="Group-19" transform="translate(24.000000, 367.000000)">
                    <path d="M270,10.1053442 L270,11.7716778 L265.817164,11.7716778 L265.817164,16 L264.166667,16 L264.166667,10.1052632 L269.996177,10.1052632 L270,10.1053442 Z M265.818453,4.22971909 L270,4.22971909 L270,5.89473684 L264.166667,5.89473684 L264.166667,0 L265.814567,0 L265.814567,4.22963813 L265.818453,4.22971909 Z M259.18679,-8.8817842e-16 L260.833333,-8.8817842e-16 L260.833333,5.89473684 L255,5.89473684 L255,4.22840318 L259.182707,4.22840318 L259.182707,8.1021742e-05 L259.18679,-8.8817842e-16 Z M259.184277,11.7702809 L255,11.7702809 L255,10.1052632 L260.833333,10.1052632 L260.833333,16 L259.184357,16 L259.184277,11.7702809 Z" id="Page-1"></path>
                </g>
            </g>
        </g>
    </g>
</svg>